#!OML:ASF E:\Style6\Style6.ASF
:FULLY-SPECIFIED
:DEGREES
3453
root 0.702665 16.9753 0.0935913 21.6053 -0.399339 0.194457
lowerback 14.5822 -0.81823 3.13227
upperback -7.04753 -0.207764 1.5449
thorax -16.2928 -0.313821 0.0511397
lowerneck -8.40991 0.668988 2.31158
upperneck 11.7597 1.49591 -7.02492
head 4.9806 0.384287 -2.46203
rclavicle 1.19271e-015 5.56597e-015
rhumerus 43.0848 -49.7565 -3.74849
rradius 90.622
rwrist 37.5441
rhand -37.7983 31.6286
rfingers 7.12502
rthumb -10.8447 1.92856
lclavicle 1.19271e-015 5.56597e-015
lhumerus 25.0629 42.0843 -6.70932
lradius 95.9198
lwrist -23.2167
lhand -40.0145 17.5263
lfingers 7.12502
lthumb -12.9818 47.1024
rfemur -50.1713 -14.0451 22.8387
rtibia 49.3236
rfoot -13.7071 0.817231
rtoes -10.2677
lfemur -47.5892 8.00581 -22.5142
ltibia 49.7689
lfoot -17.6084 0.476218
ltoes -18.8404
3454
root 0.70439 16.97 0.0942875 21.6235 -0.450814 0.252516
lowerback 14.635 -0.799592 3.05996
upperback -7.07127 -0.197703 1.52583
thorax -16.3547 -0.303452 0.0686536
lowerneck -8.33087 0.690374 2.45006
upperneck 11.6932 1.51906 -7.14999
head 4.94946 0.396414 -2.52193
rclavicle -2.05742e-014 2.06736e-014
rhumerus 43.0386 -49.6956 -3.77621
rradius 90.6505
rwrist 37.5604
rhand -37.7372 31.525
rfingers 7.12502
rthumb -10.7858 1.82194
lclavicle -2.05742e-014 2.06736e-014
lhumerus 24.9294 42.0288 -6.74768
lradius 96.0186
lwrist -23.2591
lhand -40.1089 17.8946
lfingers 7.12502
lthumb -13.0728 47.4649
rfemur -50.249 -14.0168 22.7532
rtibia 49.4143
rfoot -13.702 0.830264
rtoes -10.2275
lfemur -47.6385 8.0647 -22.6095
ltibia 49.8416
lfoot -17.6448 0.326327
ltoes -18.2771
3455
root 0.706255 16.9626 0.0938527 21.6678 -0.43126 0.26038
lowerback 14.6527 -0.818938 3.0477
upperback -7.09655 -0.222772 1.54233
thorax -16.3977 -0.312678 0.102494
lowerneck -8.31065 0.715798 2.43213
upperneck 11.64 1.55189 -7.14127
head 4.93118 0.413516 -2.51357
rclavicle -4.67144e-015 1.03368e-014
rhumerus 43.0576 -49.6752 -3.86923
rradius 90.6996
rwrist 37.5399
rhand -37.6673 31.2567
rfingers 7.12502
rthumb -10.7183 1.55008
lclavicle -4.67144e-015 1.03368e-014
lhumerus 24.7549 42.0204 -6.82067
lradius 96.1282
lwrist -23.2958
lhand -40.0256 18.0309
lfingers 7.12502
lthumb -12.9925 47.6064
rfemur -50.3519 -14.0336 22.7551
rtibia 49.5064
rfoot -13.6891 0.831739
rtoes -10.2317
lfemur -47.7281 8.06918 -22.63
ltibia 49.9196
lfoot -17.6894 0.279583
ltoes -18.2077
3456
root 0.70845 16.9585 0.0943187 21.7001 -0.424953 0.335233
lowerback 14.6659 -0.829245 2.98245
upperback -7.11668 -0.252686 1.52394
thorax -16.4308 -0.320955 0.127552
lowerneck -8.29765 0.700126 2.31125
upperneck 11.5809 1.53235 -7.05356
head 4.90856 0.405457 -2.46698
rclavicle 7.95139e-016 1.51076e-014
rhumerus 42.9417 -49.6353 -3.82413
rradius 90.7121
rwrist 37.4693
rhand -37.777 31.2269
rfingers 7.12502
rthumb -10.8241 1.52578
lclavicle 7.95139e-016 1.51076e-014
lhumerus 24.6661 42.0373 -6.83976
lradius 96.2007
lwrist -23.2984
lhand -40.0093 18.0297
lfingers 7.12502
lthumb -12.9768 47.6062
rfemur -50.4323 -14.0587 22.6731
rtibia 49.5887
rfoot -13.7051 0.796281
rtoes -10.2465
lfemur -47.8046 8.06486 -22.7377
ltibia 49.9904
lfoot -17.7269 0.321247
ltoes -18.6216
3457
root 0.709674 16.9542 0.095676 21.6909 -0.439275 0.324582
lowerback 14.7053 -0.822949 2.98368
upperback -7.10316 -0.242649 1.52235
thorax -16.4392 -0.316575 0.122456
lowerneck -8.32033 0.659475 2.24878
upperneck 11.5244 1.47541 -6.99905
head 4.89152 0.37886 -2.443
rclavicle 8.74653e-015 6.36111e-015
rhumerus 42.8425 -49.621 -3.7954
rradius 90.6961
rwrist 37.4321
rhand -37.9206 31.4396
rfingers 7.12502
rthumb -10.9627 1.74585
lclavicle 8.74653e-015 6.36111e-015
lhumerus 24.5695 42.0612 -6.83864
lradius 96.2941
lwrist -23.3312
lhand -40.1389 18.149
lfingers 7.12502
lthumb -13.1017 47.7175
rfemur -50.4502 -14.0303 22.6593
rtibia 49.6497
rfoot -13.7579 0.885143
rtoes -9.35365
lfemur -47.8408 8.12002 -22.7552
ltibia 50.0671
lfoot -17.7328 0.318052
ltoes -18.6023
3458
root 0.710926 16.9504 0.096838 21.6524 -0.446292 0.22814
lowerback 14.7497 -0.81524 3.05757
upperback -7.06504 -0.21031 1.55345
thorax -16.4209 -0.307063 0.106791
lowerneck -8.31017 0.653745 2.3289
upperneck 11.481 1.46165 -7.05499
head 4.87654 0.373032 -2.4743
rclavicle -6.26172e-015 0
rhumerus 42.8325 -49.6732 -3.80981
rradius 90.7391
rwrist 37.4704
rhand -37.8567 31.3842
rfingers 7.12502
rthumb -10.9011 1.68713
lclavicle -6.26172e-015 0
lhumerus 24.4872 42.1205 -6.79713
lradius 96.3957
lwrist -23.3574
lhand -40.1184 17.9771
lfingers 7.12502
lthumb -13.0819 47.5469
rfemur -50.4204 -13.9674 22.7277
rtibia 49.696
rfoot -13.7503 1.00752
rtoes -8.13687
lfemur -47.8456 8.20232 -22.6699
ltibia 50.1359
lfoot -17.767 0.355031
ltoes -18.8064
3459
root 0.713027 16.9487 0.0999253 21.649 -0.468548 0.231404
lowerback 14.7586 -0.815563 3.01506
upperback -7.05859 -0.217031 1.57252
thorax -16.4182 -0.303963 0.15448
lowerneck -8.24825 0.666816 2.34139
upperneck 11.3885 1.47202 -7.04887
head 4.83815 0.38177 -2.47299
rclavicle 5.56597e-015 -1.66979e-014
rhumerus 42.8709 -49.6951 -3.89449
rradius 90.8146
rwrist 37.5113
rhand -37.7913 31.1872
rfingers 7.12502
rthumb -10.838 1.48685
lclavicle 5.56597e-015 -1.66979e-014
lhumerus 24.3659 42.151 -6.81423
lradius 96.4433
lwrist -23.3128
lhand -40.1008 17.6747
lfingers 7.12502
lthumb -13.0649 47.2455
rfemur -50.4365 -13.9817 22.7207
rtibia 49.7435
rfoot -13.7435 1.00043
rtoes -7.92104
lfemur -47.8585 8.22487 -22.6876
ltibia 50.1863
lfoot -17.802 0.391883
ltoes -19.0896
3460
root 0.715319 16.9467 0.103485 21.654 -0.463254 0.304703
lowerback 14.7949 -0.833009 2.92881
upperback -7.0801 -0.25564 1.58519
thorax -16.4677 -0.311532 0.229879
lowerneck -8.2968 0.681968 2.26469
upperneck 11.4035 1.4991 -7.01549
head 4.85174 0.39262 -2.44824
rclavicle -8.64713e-015 2.22639e-014
rhumerus 42.9241 -49.651 -4.02232
rradius 90.8968
rwrist 37.581
rhand -37.7791 31.1173
rfingers 7.12502
rthumb -10.8262 1.41631
lclavicle -8.64713e-015 2.22639e-014
lhumerus 24.1438 42.0849 -6.88986
lradius 96.5383
lwrist -23.3539
lhand -40.0832 17.8324
lfingers 7.12502
lthumb -13.048 47.4043
rfemur -50.4673 -14.0658 22.6567
rtibia 49.7998
rfoot -13.7779 0.942794
rtoes -8.88652
lfemur -47.8676 8.18717 -22.7719
ltibia 50.2286
lfoot -17.8157 0.412038
ltoes -19.4162
3461
root 0.717705 16.9452 0.107446 21.6288 -0.42853 0.321039
lowerback 14.8475 -0.84912 2.9447
upperback -7.09297 -0.272132 1.57999
thorax -16.5181 -0.321439 0.220947
lowerneck -8.36502 0.673086 2.1568
upperneck 11.5055 1.49436 -6.91642
head 4.89321 0.388796 -2.4006
rclavicle 1.68967e-015 7.95139e-016
rhumerus 42.8232 -49.5943 -4.02094
rradius 91.0142
rwrist 37.639
rhand -37.7985 31.338
rfingers 7.12502
rthumb -10.8449 1.63806
lclavicle 1.68967e-015 7.95139e-016
lhumerus 24.0622 42.0152 -6.86829
lradius 96.6519
lwrist -23.3638
lhand -40.0676 17.9455
lfingers 7.12502
lthumb -13.0329 47.5184
rfemur -50.4492 -14.1494 22.6447
rtibia 49.8654
rfoot -13.8516 0.952217
rtoes -9.28045
lfemur -47.8395 8.14871 -22.7845
ltibia 50.2698
lfoot -17.8404 0.397162
ltoes -19.5886
3462
root 0.720073 16.9423 0.111177 21.6291 -0.392823 0.290868
lowerback 14.8493 -0.857471 3.00856
upperback -7.09317 -0.268313 1.58663
thorax -16.5204 -0.32615 0.191455
lowerneck -8.5435 0.61212 1.8277
upperneck 11.6844 1.42769 -6.6189
head 4.9718 0.354306 -2.25926
rclavicle -1.42131e-014 5.56597e-015
rhumerus 42.6651 -49.5806 -3.90899
rradius 91.1164
rwrist 37.6826
rhand -37.8512 31.557
rfingers 7.12502
rthumb -10.8958 1.85972
lclavicle -1.42131e-014 5.56597e-015
lhumerus 24.0809 42.0357 -6.7406
lradius 96.7029
lwrist -23.2977
lhand -39.9954 17.7184
lfingers 7.12502
lthumb -12.9634 47.2957
rfemur -50.469 -14.191 22.6884
rtibia 49.9378
rfoot -13.9241 0.943093
rtoes -9.43511
lfemur -47.8567 8.10786 -22.7354
ltibia 50.3233
lfoot -17.8558 0.374295
ltoes -19.5156
3463
root 0.721691 16.9384 0.114038 21.6487 -0.395967 0.267886
lowerback 14.8296 -0.851403 3.0412
upperback -7.07701 -0.254878 1.58222
thorax -16.4879 -0.323683 0.163361
lowerneck -8.53015 0.635833 1.91153
upperneck 11.5595 1.45457 -6.71937
head 4.93341 0.367173 -2.30173
rclavicle 1.19271e-014 -8.74653e-015
rhumerus 42.5187 -49.6316 -3.81537
rradius 91.1564
rwrist 37.7372
rhand -37.8465 31.6087
rfingers 7.12502
rthumb -10.8912 1.91114
lclavicle 1.19271e-014 -8.74653e-015
lhumerus 24.1194 42.1339 -6.63229
lradius 96.7024
lwrist -23.1889
lhand -40.0305 17.4987
lfingers 7.12502
lthumb -12.9972 47.0739
rfemur -50.5352 -14.1998 22.7236
rtibia 50.0152
rfoot -13.9716 0.961579
rtoes -9.32654
lfemur -47.9125 8.11837 -22.7162
ltibia 50.3898
lfoot -17.8703 0.361862
ltoes -19.3614
3464
root 0.722953 16.9328 0.116112 21.6661 -0.428182 0.29885
lowerback 14.8134 -0.843487 2.9881
upperback -7.05742 -0.257079 1.5826
thorax -16.4525 -0.318578 0.193609
lowerneck -8.70063 0.66468 1.79483
upperneck 11.6864 1.50181 -6.60575
head 5.00225 0.387148 -2.24475
rclavicle 3.97569e-015 -1.19271e-014
rhumerus 42.5192 -49.6752 -3.86262
rradius 91.1576
rwrist 37.7957
rhand -37.9142 31.4962
rfingers 7.12502
rthumb -10.9565 1.8021
lclavicle 3.97569e-015 -1.19271e-014
lhumerus 24.0695 42.1866 -6.59887
lradius 96.7585
lwrist -23.1472
lhand -40.0684 17.5912
lfingers 7.12502
lthumb -13.0337 47.164
rfemur -50.5967 -14.1942 22.6824
rtibia 50.0871
rfoot -13.9956 1.00477
rtoes -9.43963
lfemur -47.9595 8.15638 -22.7711
ltibia 50.4553
lfoot -17.9304 0.298177
ltoes -19.0988
3465
root 0.724296 16.928 0.117549 21.6789 -0.481355 0.319824
lowerback 14.8133 -0.830221 2.93424
upperback -7.04471 -0.253793 1.56558
thorax -16.4358 -0.312415 0.203241
lowerneck -8.87406 0.687445 1.77594
upperneck 11.813 1.53426 -6.54597
head 5.07169 0.400755 -2.22167
rclavicle 2.38542e-015 7.95139e-016
rhumerus 42.4391 -49.6752 -3.87217
rradius 91.2254
rwrist 37.7512
rhand -37.9489 31.2402
rfingers 7.12502
rthumb -10.9899 1.54782
lclavicle 2.38542e-015 7.95139e-016
lhumerus 23.9626 42.1655 -6.68929
lradius 96.84
lwrist -23.1764
lhand -40.0285 18.0765
lfingers 7.12502
lthumb -12.9952 47.6518
rfemur -50.6468 -14.1687 22.6434
rtibia 50.1517
rfoot -13.9869 1.01808
rtoes -9.41763
lfemur -48.0123 8.23214 -22.8394
ltibia 50.5235
lfoot -17.9941 0.315317
ltoes -19.1625
3466
root 0.728334 16.9262 0.120509 21.7003 -0.516093 0.291176
lowerback 14.7641 -0.834303 2.97431
upperback -6.99949 -0.25364 1.56915
thorax -16.349 -0.315705 0.182701
lowerneck -9.02383 0.718463 1.85302
upperneck 11.8401 1.58179 -6.66037
head 5.10905 0.416785 -2.26712
rclavicle -4.67144e-015 7.15625e-015
rhumerus 42.4604 -49.7485 -3.95827
rradius 91.2953
rwrist 37.7582
rhand -37.9455 31.1863
rfingers 7.12502
rthumb -10.9867 1.49384
lclavicle -4.67144e-015 7.15625e-015
lhumerus 23.7218 42.208 -6.88197
lradius 96.9371
lwrist -23.1288
lhand -39.9933 18.0901
lfingers 7.12502
lthumb -12.9614 47.6675
rfemur -50.6945 -14.184 22.673
rtibia 50.1993
rfoot -13.9755 1.04806
rtoes -9.37945
lfemur -48.0516 8.30695 -22.8495
ltibia 50.5861
lfoot -18.0626 0.20465
ltoes -18.7651
